<svg width="827" height="815" viewBox="0 0 827 815" fill="none" xmlns="http://www.w3.org/2000/svg">
<path d="M534.294 542.388C531.485 562.852 510.312 575.333 491.047 567.882L160.876 440.18C135.929 430.532 133.127 396.352 156.169 382.769L534.476 159.751C557.518 146.168 586.067 165.17 582.43 191.669L534.294 542.388Z" fill="#2EA7FF"/>
<path d="M572.294 607.388C569.485 627.852 548.312 640.333 529.047 632.882L198.876 505.18C173.929 495.532 171.127 461.352 194.169 447.769L572.476 224.751C595.518 211.168 624.067 230.17 620.43 256.669L572.294 607.388Z" fill="#E0A7DE" fill-opacity="0.66"/>
<path d="M273.939 403.935C269.965 402.244 268.236 399.663 268.752 396.192C269.269 392.72 271.282 389.981 274.791 387.976L474.693 269.566C479.784 266.485 484.662 265.937 489.328 267.921C493.821 269.832 495.423 273.136 494.134 277.834L446.731 461.388C446.042 464.786 443.597 467.341 439.397 469.052C435.369 470.836 431.541 470.957 427.912 469.414C425.838 468.532 424.292 467.291 423.273 465.692C422.426 464.166 422.194 462.319 422.574 460.149L469.491 285.714L477.526 289.131L287.524 402.717C285.242 404.079 282.883 404.824 280.446 404.953C278.182 405.156 276.013 404.817 273.939 403.935ZM324.009 371.021L343.658 359.851L448.899 404.606L444.802 422.39L324.009 371.021Z" fill="white" fill-opacity="0.7"/>
</svg>
