<svg width="546" height="555" viewBox="0 0 546 555" fill="none" xmlns="http://www.w3.org/2000/svg">
<mask id="mask0" mask-type="alpha" maskUnits="userSpaceOnUse" x="0" y="0" width="546" height="555">
<mask id="mask1" maskUnits="userSpaceOnUse" x="205" y="138" width="330" height="337">
<path d="M309.335 455.42L507.068 328.958L319.903 254.129L309.335 455.42Z" stroke="white" stroke-width="20"/>
<path d="M316.295 353.332L512.723 227.463L326.819 152.884L316.295 353.332Z" stroke="white" stroke-width="20"/>
<path d="M216.593 418.502L413.123 292.125L227.169 217.059L216.593 418.502Z" stroke="white" stroke-width="20" stroke-miterlimit="16"/>
</mask>
<g mask="url(#mask1)">
<path d="M607.945 229.791L453.373 167.993L247.59 85.7198C243.456 84.0672 187.028 157.216 159.331 193.998L96.1306 411.18L146.321 509.283C211.945 516.656 345.66 530.124 355.511 525.008C365.36 519.891 458.269 435.633 503.493 394.143L607.945 229.791Z" fill="white"/>
</g>
<mask id="mask2" maskUnits="userSpaceOnUse" x="0" y="0" width="546" height="555">
<path d="M528.878 12.5238L13.1561 342.359C12.5546 342.744 12.1724 342.988 11.8894 343.173C11.7107 343.289 11.629 343.344 11.6079 343.358C9.58177 344.823 9.44427 347.444 11.3447 348.382C11.3658 348.391 11.4431 348.425 11.6103 348.494C11.8777 348.604 12.2397 348.749 12.8087 348.976L500.966 544.143C501.535 544.371 501.896 544.516 502.168 544.621C502.337 544.686 502.417 544.715 502.439 544.723C504.519 545.378 507.095 543.731 507.375 541.567C507.377 541.544 507.383 541.459 507.394 541.278C507.412 540.988 507.434 540.599 507.466 539.987L535.029 14.9831C535.062 14.3714 535.081 13.9822 535.094 13.6934C535.101 13.5118 535.103 13.428 535.104 13.405C535.05 11.2867 532.612 10.3117 530.432 11.5378C530.41 11.551 530.326 11.6027 530.146 11.7154C529.86 11.8946 529.479 12.139 528.878 12.5238Z" stroke="white" stroke-width="20"/>
</mask>
<g mask="url(#mask2)">
<path d="M512.722 238.53C520.606 233.541 536.435 223.468 536.677 223.088L549.56 213.942L555.451 155.537L564.12 63.0946L603.833 -6.80888L538.362 -25.2409L381.577 59.214L317.705 133.755L316.369 161.815L241.333 211.795L216.333 199.795C165.732 197.833 63.5362 193.811 55.0803 193.766C46.6238 193.721 2.05723 310.571 -19.1697 369.001L203.455 437.754L206.333 436.295L230.026 420.975L302.833 448.295L298.333 473.795L516.427 574.795L521.117 543.311L534.333 329.259L507.833 318.759L512.722 238.53Z" fill="white"/>
</g>
</mask>
<g mask="url(#mask0)">
<path d="M273.466 -121.241L820.833 96.1742L510.201 581.759L-37.1665 364.344L273.466 -121.241Z" fill="#2E0A26"/>
</g>
</svg>
