<svg width="450" height="450" xmlns="http://www.w3.org/2000/svg">

 <g>
  <title>background</title>
  <rect fill="none" id="canvas_background" height="452" width="452" y="-1" x="-1"/>
 </g>
 <g>
  <title>Layer 1</title>
  <path id="svg_1" fill-opacity="0.78" fill="#2EA7FF" d="m397.712953,404.737506c-2.809,20.464 -23.982,32.945 -43.247,25.494l-330.171,-127.701c-24.947,-9.649 -27.749,-43.829 -4.707,-57.412l378.307,-223.018c23.042,-13.583 51.591,5.419 47.954,31.918l-48.136,350.719z"/>
  <path id="svg_2" fill-opacity="0.7" fill="white" d="m141.459595,262.951552c-4.02,-1.579 -5.82,-4.111 -5.4,-7.596c0.42,-3.485 2.356,-6.278 5.808,-8.38l196.541,-123.909c5.003,-3.221 9.865,-3.905 14.584,-2.05c4.544,1.785 6.237,5.043 5.079,9.775l-42.293,184.798c-0.595,3.416 -2.968,6.038 -7.119,7.865c-3.977,1.895 -7.8,2.122 -11.47,0.68c-2.098,-0.824 -3.678,-2.021 -4.741,-3.591c-0.889,-1.502 -1.173,-3.343 -0.852,-5.522l42.06,-175.669l8.127,3.193l-186.778,118.812c-2.243,1.424 -4.581,2.235 -7.014,2.432c-2.257,0.265 -4.435,-0.014 -6.532,-0.838zm49.137,-34.29l19.332,-11.711l106.442,41.819l-3.602,17.891l-122.172,-47.999z"/>
 </g>
</svg>